<?xml version="1.0" standalone="no"?>
<!DOCTYPE svg PUBLIC "-//W3C//DTD SVG 20010904//EN"
 "http://www.w3.org/TR/2001/REC-SVG-20010904/DTD/svg10.dtd">
<svg version="1.0" xmlns="http://www.w3.org/2000/svg"
 width="180.000000pt" height="180.000000pt" viewBox="0 0 180.000000 180.000000"
 preserveAspectRatio="xMidYMid meet">

<g transform="translate(0.000000,180.000000) scale(0.100000,-0.100000)"
fill="#000000" stroke="none">
<path d="M1089 1388 c7 -10 20 -18 27 -18 7 0 11 -6 8 -14 -4 -10 2 -12 20 -9
36 7 32 20 -6 28 -18 4 -40 12 -48 19 -13 10 -13 9 -1 -6z"/>
<path d="M1160 1340 c-12 -8 -12 -10 -1 -10 11 0 11 -3 1 -15 -10 -12 -9 -15
8 -15 11 0 22 7 26 15 3 8 1 15 -5 15 -6 0 -7 5 -4 10 8 13 -5 13 -25 0z"/>
<path d="M1208 1338 c5 -5 16 -8 23 -6 8 3 3 7 -10 11 -17 4 -21 3 -13 -5z"/>
<path d="M1285 1300 c3 -4 14 -10 25 -13 11 -3 18 -2 15 3 -3 4 -14 10 -25 13
-11 3 -18 2 -15 -3z"/>
<path d="M627 1263 c-16 -15 -3 -18 78 -18 61 0 85 3 85 13 0 8 -22 12 -78 12
-43 0 -82 -3 -85 -7z"/>
<path d="M1006 1261 c-4 -5 -3 -12 1 -14 15 -10 173 -2 173 8 0 13 -166 19
-174 6z"/>
<path d="M1268 1263 c7 -3 16 -2 19 1 4 3 -2 6 -13 5 -11 0 -14 -3 -6 -6z"/>
<path d="M813 892 l-103 -3 0 -28 c0 -16 -7 -34 -15 -41 -8 -7 -15 -28 -15
-46 l0 -34 -55 0 -55 0 0 34 c0 19 -4 38 -10 41 -5 3 -10 22 -10 41 l0 35 -92
-3 -93 -3 -3 -190 c-4 -246 -7 -240 134 -295 150 -58 284 -102 297 -97 6 2
-10 10 -36 18 -43 12 -46 15 -30 27 17 12 16 12 -2 11 -11 -1 -31 -1 -45 1
-14 2 9 6 50 10 l75 6 -85 4 -85 4 85 6 85 6 -90 3 c-71 2 -83 5 -56 11 19 5
187 9 374 9 380 2 378 2 397 72 6 21 9 117 8 220 l-3 182 -82 1 -83 1 0 -29
c0 -16 -7 -37 -15 -46 -8 -9 -15 -30 -17 -48 -2 -32 -3 -32 -53 -32 l-52 0 5
31 c3 22 0 34 -12 41 -10 6 -16 22 -16 46 l0 37 -97 0 c-54 0 -144 -1 -200 -3z
m-186 -508 c-3 -3 -12 -4 -19 -1 -8 3 -5 6 6 6 11 1 17 -2 13 -5z"/>
<path d="M888 393 c7 -3 16 -2 19 1 4 3 -2 6 -13 5 -11 0 -14 -3 -6 -6z"/>
</g>
</svg>
